<svg id="SvgjsSvg1006" width="5000px" height="848.3100074071186px" xmlns="http://www.w3.org/2000/svg" version="1.1" xmlns:xlink="http://www.w3.org/1999/xlink" xmlns:svgjs="http://svgjs.com/svgjs" viewBox="0 0 400.796875 68"><defs id="SvgjsDefs1007"></defs><g id="SvgjsG1009"><svg width="68" height="68" x="0" y="0" xmlns="http://www.w3.org/2000/svg" version="1.1" xmlns:xlink="http://www.w3.org/1999/xlink" xmlns:svgjs="http://svgjs.com/svgjs" preserveAspectRatio="none"><rect width="68" height="68" stroke-width="0" stroke="#ffffff" stroke-opacity="0.1" fill="#4c96d7" fill-opacity="1" x="0" y="0" rx="50%" ry="50%"></rect><defs id="SvgjsDefs1008"></defs></svg></g><g id="SvgjsG1011" transform="rotate(0 34.21875 33.5078125)"><svg width="50" viewBox="0 0 95.1880111694336 79.71299743652344" xmlns="http://www.w3.org/2000/svg" version="1.1" xmlns:xlink="http://www.w3.org/1999/xlink" xmlns:svgjs="http://svgjs.com/svgjs" preserveAspectRatio="none" height="41.859375" x="9.21875" y="12.578125"><g><svg data-color="1" xmlns="http://www.w3.org/2000/svg" xmlns:xlink="http://www.w3.org/1999/xlink" version="1.1" x="0px" y="0px" viewBox="2.127999782562256 9.906000137329102 95.1880111694336 79.71299743652344" enable-background="new 0 0 100 100" xml:space="preserve" width="95.1880111694336" height="79.71299743652344" fill="#ffffff"><polygon points="59.819,22.249 59.819,22.252 59.827,22.248 "></polygon><polygon points="74.12,38.466 74.173,38.484 74.214,38.363 74.111,38.456 "></polygon><polygon points="59.802,22.27 59.832,22.305 59.819,22.252 "></polygon><path d="M90.068,9.917l-3.141,0.657l-15.046,3.142l-0.621,0.13l-0.473,0.099l-3.645,0.857l5.44,2.891l-0.471,6.034L54.847,38.989  l-3.336,2.949L26.135,64.373l-12.102-2.525l-3,2.651l4.549,0.907l7.554,1.618l-1.455,1.285L9.579,65.784l-2.998,2.65l4.548,0.909  l7.554,1.615l-1.454,1.285L5.126,69.72l-2.998,2.65l4.642,1.016l8.436,1.951l0.958,0.206l0.099,0.989l0.851,8.553l0.411,4.534  l2.999-2.651L19.451,74.69l1.454-1.285l0.72,7.808l0.352,4.47l3-2.651l-1.073-12.276l1.454-1.285l0.721,7.808l0.353,4.469l3-2.65  l-1.075-12.277L54,44.145l3.104-2.742l17.205-15.21l5.948,0.299l2.148,5.841l1.337-3.605l0.209-0.638l0.172-0.533l4.96-14.554  l-0.202,0.042l0,0l0.201-0.037l1.038-3.035l0.018-0.066L90.068,9.917z M83.101,14.012l-3.514,3.105l-0.765,0.676l-2.021-1.03  l-1.802-0.995L83.101,14.012z M75.777,19.306l1.327,0.72l-1.452,1.285L75.777,19.306z M77.176,23.48l1.424-1.259l0.512,1.378  L77.176,23.48z M82.413,24.048L81.8,22.416l-0.81-2.131l0.806-0.71l3.197-2.829L82.413,24.048z"></path><polygon points="39.622,22.249 39.622,22.252 39.615,22.248 "></polygon><polygon points="25.322,38.466 25.27,38.484 25.229,38.363 25.331,38.456 "></polygon><polygon points="39.64,22.27 39.61,22.305 39.622,22.252 "></polygon><path d="M9.304,9.906l0.018,0.066l1.038,3.035l0.201,0.037l0,0l-0.202-0.042l4.959,14.554l0.172,0.533l0.208,0.638l1.337,3.605  l2.148-5.841l5.948-0.299l17.205,15.21l3.104,2.742l25.645,22.673l-1.074,12.277l2.999,2.65l0.353-4.469l0.721-7.808l1.454,1.285  l-1.073,12.276l2.999,2.651l0.353-4.47l0.72-7.808l1.454,1.285l-1.072,12.277l2.997,2.651l0.412-4.534l0.85-8.553l0.101-0.989  l0.957-0.206l8.436-1.951l4.644-1.016l-2.998-2.65l-12.104,2.524l-1.454-1.285l7.554-1.615l4.549-0.909l-2.998-2.65L77.761,68.31  l-1.455-1.285l7.554-1.618l4.55-0.907l-3.001-2.651l-12.101,2.525L47.931,41.938l-3.336-2.949L27.329,23.726l-0.471-6.034  l5.44-2.891l-3.646-0.857l-0.472-0.099l-0.621-0.13l-15.045-3.142L9.374,9.917L9.304,9.906z M24.443,15.768l-1.801,0.995  l-2.021,1.03l-0.765-0.676l-3.514-3.105L24.443,15.768z M23.79,21.311l-1.453-1.285l1.327-0.72L23.79,21.311z M20.331,23.6  l0.511-1.378l1.424,1.259L20.331,23.6z M14.449,16.746l3.196,2.829l0.806,0.71l-0.809,2.131l-0.614,1.632L14.449,16.746z"></path></svg></g><defs id="SvgjsDefs1010"></defs></svg></g><g id="SvgjsG1013" transform="rotate(0 239.5078125 36.0078125)"><svg xmlns="http://www.w3.org/2000/svg" xmlns:xlink="http://www.w3.org/1999/xlink" width="322.578125" viewBox="0.25 12.770000457763672 322.5899963378906 30.529998779296875" overflow="visible" style="overflow: visible;" transform="" version="1.1" xmlns:svgjs="http://svgjs.com/svgjs" preserveAspectRatio="none" height="30.515625" x="78.21875" y="20.75" fill="#000000" stroke="none"><path stroke="none" fill="#464545" d="M4.13 35.73L4.41 33.88L4.41 33.88Q6.09 33.74 6.77 33.44L6.77 33.44L6.77 33.44Q7.46 33.15 7.68 32.39L7.68 32.39L7.68 32.39Q7.91 31.64 7.91 29.86L7.91 29.86L7.91 15.16L7.91 15.16Q5.36 15.23 4.41 15.49L4.41 15.49L4.41 15.49Q3.47 15.75 3.10 16.57L3.10 16.57L3.10 16.57Q2.73 17.39 2.45 19.64L2.45 19.64L0.25 19.81L0.25 19.81Q0.60 16.70 0.74 13.09L0.74 13.09L1.09 12.77L4.24 13.16L15.12 13.16L18.34 12.77L18.69 13.09L18.69 13.09Q18.83 16.77 19.15 19.64L19.15 19.64L16.94 19.81L16.94 19.81Q16.59 17.46 16.24 16.63L16.24 16.63L16.24 16.63Q15.89 15.79 15.02 15.52L15.02 15.52L15.02 15.52Q14.14 15.26 11.76 15.16L11.76 15.16L11.76 15.16Q11.59 17.43 11.43 22.37L11.43 22.37L11.43 22.37Q11.27 27.30 11.27 31.29L11.27 31.29L11.27 31.29Q11.27 32.59 11.73 33.13L11.73 33.13L11.73 33.13Q12.18 33.67 13.23 33.67L13.23 33.67L13.23 33.67Q14.18 33.67 15.12 33.57L15.12 33.57L15.26 33.74L14.95 35.70L14.95 35.70Q11.59 35.56 9.38 35.56L9.38 35.56L9.38 35.56Q6.93 35.56 4.13 35.73L4.13 35.73ZM23.18 35.95L23.42 34.05L23.42 34.05Q25.00 33.74 25.52 33.13L25.52 33.13L25.52 33.13Q26.05 32.52 26.05 31.05L26.05 31.05L26.08 16.91L26.08 16.91Q26.08 15.79 25.82 15.40L25.82 15.40L25.82 15.40Q25.55 15.02 24.79 15.02L24.79 15.02L23.66 15.09L23.53 14.88L23.80 13.13L25.94 13.16L25.94 13.16Q26.64 13.20 27.80 13.20L27.80 13.20L27.80 13.20Q28.85 13.20 32.20 12.91L32.20 12.91L32.06 14.80L32.06 14.80Q31.05 14.98 30.63 15.21L30.63 15.21L30.63 15.21Q30.21 15.43 30.05 15.96L30.05 15.96L30.05 15.96Q29.90 16.48 29.83 17.68L29.83 17.68L29.62 23.07L34.90 23.10L34.90 23.10Q36.86 23.10 39.63 22.82L39.63 22.82L39.66 16.91L39.66 16.91Q39.66 15.79 39.40 15.40L39.40 15.40L39.40 15.40Q39.14 15.02 38.37 15.02L38.37 15.02L38.37 15.02Q37.88 15.02 37.25 15.09L37.25 15.09L37.11 14.88L37.35 13.13L38.33 13.16L41.23 13.20L41.23 13.20Q42.29 13.20 45.86 12.91L45.86 12.91L45.68 14.80L45.68 14.80Q44.39 14.98 43.95 15.37L43.95 15.37L43.95 15.37Q43.51 15.75 43.48 16.77L43.48 16.77L43.48 16.77Q43.27 20.23 43.14 24.50L43.14 24.50L43.14 24.50Q43.02 28.77 43.02 31.36L43.02 31.36L43.02 31.36Q43.02 32.73 43.34 33.22L43.34 33.22L43.34 33.22Q43.65 33.71 44.53 33.71L44.53 33.71L44.53 33.71Q44.91 33.71 45.96 33.60L45.96 33.60L46.10 33.78L45.79 35.66L45.79 35.66Q45.33 35.66 45.05 35.63L45.05 35.63L45.05 35.63Q42.53 35.56 41.13 35.56L41.13 35.56L36.72 35.63L37.04 33.74L37.04 33.74Q38.12 33.71 38.66 33.43L38.66 33.43L38.66 33.43Q39.20 33.15 39.42 32.43L39.42 32.43L39.42 32.43Q39.63 31.71 39.63 30.24L39.63 30.24L39.63 25.30L34.97 25.27L34.97 25.27Q34.17 25.27 32.70 25.38L32.70 25.38L32.70 25.38Q31.23 25.48 29.55 25.62L29.55 25.62L29.44 31.33L29.44 31.33Q29.44 32.76 29.72 33.23L29.72 33.23L29.72 33.23Q30 33.71 30.88 33.71L30.88 33.71L30.88 33.71Q31.19 33.71 32.34 33.60L32.34 33.60L32.45 33.78L32.14 35.66L32.14 35.66Q31.58 35.63 30.56 35.59L30.56 35.59L30.56 35.59Q29.55 35.56 28.60 35.56L28.60 35.56L28.60 35.56Q27.17 35.56 25.38 35.68L25.38 35.68L25.38 35.68Q23.60 35.80 23.18 35.95L23.18 35.95ZM68.61 29.12L68.79 29.37L68.79 29.37Q68.16 32.13 67.81 35.53L67.81 35.53L67.56 35.80L67.56 35.80Q60.53 35.56 56.85 35.56L56.85 35.56L56.85 35.56Q54.09 35.56 51.46 35.91L51.46 35.91L51.67 33.98L51.67 33.98Q53.21 33.78 53.77 33.15L53.77 33.15L53.77 33.15Q54.33 32.52 54.33 31.01L54.33 31.01L54.37 16.91L54.37 16.91Q54.37 15.79 54.12 15.40L54.12 15.40L54.12 15.40Q53.88 15.02 53.14 15.02L53.14 15.02L51.99 15.09L51.85 14.88L52.13 13.09L52.13 13.09Q56.22 13.20 57.66 13.20L57.66 13.20L57.66 13.20Q61.72 13.20 64.15 13.11L64.15 13.11L64.15 13.11Q66.58 13.02 68.23 12.77L68.23 12.77L68.40 13.05L68.40 13.05Q68.12 14.35 67.89 16.03L67.89 16.03L67.89 16.03Q67.67 17.71 67.59 19.11L67.59 19.11L65.25 19.29L65.32 17.82L65.32 17.82Q65.32 16.70 65.01 16.22L65.01 16.22L65.01 16.22Q64.69 15.75 63.73 15.59L63.73 15.59L63.73 15.59Q62.77 15.43 60.39 15.43L60.39 15.43L60.39 15.43Q59.30 15.43 58.88 15.50L58.88 15.50L58.88 15.50Q58.46 15.57 58.34 15.84L58.34 15.84L58.34 15.84Q58.22 16.10 58.18 16.73L58.18 16.73L57.90 22.93L61.37 22.96L61.37 22.96Q62.14 22.96 63.31 22.86L63.31 22.86L63.31 22.86Q64.48 22.75 65.57 22.61L65.57 22.61L65.74 22.86L65.25 25.34L65.25 25.34Q61.58 25.23 60.53 25.23L60.53 25.23L60.53 25.23Q59.51 25.23 57.83 25.45L57.83 25.45L57.73 31.40L57.73 31.40Q57.73 32.38 57.88 32.80L57.88 32.80L57.88 32.80Q58.04 33.22 58.53 33.36L58.53 33.36L58.53 33.36Q59.02 33.50 60.25 33.50L60.25 33.50L60.25 33.50Q62.87 33.50 64.03 33.22L64.03 33.22L64.03 33.22Q65.18 32.94 65.67 32.11L65.67 32.11L65.67 32.11Q66.16 31.29 66.44 29.33L66.44 29.33L68.61 29.12ZM92.70 35.98L92.70 35.98Q89.52 35.98 87.17 34.65L87.17 34.65L87.17 34.65Q84.83 33.32 83.55 30.85L83.55 30.85L83.55 30.85Q82.27 28.39 82.27 25.06L82.27 25.06L82.27 25.06Q82.27 21.49 83.81 18.69L83.81 18.69L83.81 18.69Q85.35 15.89 88.13 14.33L88.13 14.33L88.13 14.33Q90.92 12.77 94.48 12.77L94.48 12.77L94.48 12.77Q95.78 12.77 97.20 12.97L97.20 12.97L97.20 12.97Q98.62 13.16 99.59 13.35L99.59 13.35L99.59 13.35Q100.58 13.55 100.86 13.61L100.86 13.61L101.03 13.93L101.03 13.93Q100.96 14.14 100.78 15.00L100.78 15.00L100.78 15.00Q100.61 15.86 100.42 17.22L100.42 17.22L100.42 17.22Q100.23 18.59 100.12 20.13L100.12 20.13L97.67 20.30L97.67 20.30Q97.70 20.13 97.74 19.64L97.74 19.64L97.74 19.64Q97.78 19.14 97.78 18.52L97.78 18.52L97.78 18.52Q97.78 15.40 93.19 15.40L93.19 15.40L93.19 15.40Q90.00 15.40 88.20 17.64L88.20 17.64L88.20 17.64Q86.40 19.88 86.40 23.87L86.40 23.87L86.40 23.87Q86.40 26.84 87.28 29.03L87.28 29.03L87.28 29.03Q88.15 31.22 89.74 32.39L89.74 32.39L89.74 32.39Q91.34 33.57 93.47 33.57L93.47 33.57L93.47 33.57Q95.64 33.57 96.92 32.30L96.92 32.30L96.92 32.30Q98.20 31.05 98.75 28.35L98.75 28.35L101.21 28.14L101.21 28.14Q101.10 28.70 100.80 30.63L100.80 30.63L100.80 30.63Q100.50 32.55 100.37 34.23L100.37 34.23L100.12 34.58L100.12 34.58Q100.12 34.62 99 34.98L99 34.98L99 34.98Q97.88 35.35 96.23 35.66L96.23 35.66L96.23 35.66Q94.59 35.98 92.70 35.98L92.70 35.98ZM115.84 35.98L115.84 35.98Q112.90 35.98 110.68 34.63L110.68 34.63L110.68 34.63Q108.45 33.29 107.23 30.80L107.23 30.80L107.23 30.80Q106.00 28.32 106.00 25.06L106.00 25.06L106.00 25.06Q106.00 21.56 107.49 18.76L107.49 18.76L107.49 18.76Q108.98 15.96 111.59 14.37L111.59 14.37L111.59 14.37Q114.20 12.77 117.48 12.77L117.48 12.77L117.48 12.77Q120.50 12.77 122.77 14.12L122.77 14.12L122.77 14.12Q125.05 15.47 126.29 17.92L126.29 17.92L126.29 17.92Q127.53 20.37 127.53 23.63L127.53 23.63L127.53 23.63Q127.53 27.16 126.03 29.98L126.03 29.98L126.03 29.98Q124.52 32.80 121.84 34.39L121.84 34.39L121.84 34.39Q119.17 35.98 115.84 35.98L115.84 35.98ZM116.86 33.67L116.86 33.67Q118.81 33.67 120.28 32.64L120.28 32.64L120.28 32.64Q121.75 31.61 122.58 29.70L122.58 29.70L122.58 29.70Q123.40 27.79 123.40 25.27L123.40 25.27L123.40 25.27Q123.40 22.26 122.54 20.04L122.54 20.04L122.54 20.04Q121.69 17.82 120.09 16.63L120.09 16.63L120.09 16.63Q118.50 15.43 116.40 15.43L116.40 15.43L116.40 15.43Q114.47 15.43 113.04 16.47L113.04 16.47L113.04 16.47Q111.61 17.50 110.82 19.39L110.82 19.39L110.82 19.39Q110.03 21.28 110.03 23.80L110.03 23.80L110.03 23.80Q110.03 26.81 110.87 29.03L110.87 29.03L110.87 29.03Q111.71 31.26 113.25 32.46L113.25 32.46L113.25 32.46Q114.79 33.67 116.86 33.67L116.86 33.67ZM149.97 36.75L149.97 36.75Q147.21 32.41 144.60 28.49L144.60 28.49L144.60 28.49Q141.99 24.57 140.31 22.14L140.31 22.14L140.31 22.14Q138.63 19.70 138.18 19.07L138.18 19.07L137.93 19.07L137.79 32.23L137.79 32.23Q137.82 33.08 138.07 33.39L138.07 33.39L138.07 33.39Q138.31 33.71 138.94 33.71L138.94 33.71L140.63 33.67L140.73 33.84L140.41 35.70L140.41 35.70Q140.00 35.66 138.81 35.61L138.81 35.61L138.81 35.61Q137.62 35.56 136.35 35.56L136.35 35.56L136.35 35.56Q135.34 35.56 134.17 35.68L134.17 35.68L134.17 35.68Q133.00 35.80 132.65 35.84L132.65 35.84L132.85 33.91L132.85 33.91Q133.94 33.78 134.45 33.27L134.45 33.27L134.45 33.27Q134.96 32.76 134.99 31.71L134.99 31.71L135.44 17.05L135.44 17.05Q135.44 15.96 134.83 15.50L134.83 15.50L134.83 15.50Q134.22 15.05 132.47 14.88L132.47 14.88L132.33 14.63L132.57 13.02L132.57 13.02Q132.93 13.05 134.08 13.13L134.08 13.13L134.08 13.13Q135.24 13.20 136.04 13.20L136.04 13.20L136.04 13.20Q136.84 13.20 137.70 13.14L137.70 13.14L137.70 13.14Q138.56 13.09 138.81 13.05L138.81 13.05L138.81 13.05Q141.15 16.77 143.55 20.34L143.55 20.34L143.55 20.34Q145.94 23.91 147.54 26.22L147.54 26.22L147.54 26.22Q149.13 28.53 149.55 29.12L149.55 29.12L149.80 29.12L149.76 16.55L149.76 16.55Q149.76 15.05 148.60 15.05L148.60 15.05L147.34 15.09L147.24 14.88L147.52 13.05L147.52 13.05Q147.94 13.09 149.06 13.14L149.06 13.14L149.06 13.14Q150.18 13.20 151.37 13.20L151.37 13.20L151.37 13.20Q152.35 13.20 153.56 13.09L153.56 13.09L153.56 13.09Q154.76 12.98 155.12 12.95L155.12 12.95L154.94 14.88L154.94 14.88Q153.75 15.05 153.21 15.56L153.21 15.56L153.21 15.56Q152.66 16.07 152.63 17.08L152.63 17.08L152.14 36.30L149.97 36.75ZM182.42 43.30L182.42 43.30Q180.74 43.30 179.25 42.75L179.25 42.75L179.25 42.75Q177.77 42.21 175.53 40.71L175.53 40.71L175.53 40.71Q173.28 39.20 169.09 35.98L169.09 35.98L169.09 35.98Q166.15 35.98 163.92 34.63L163.92 34.63L163.92 34.63Q161.70 33.29 160.47 30.80L160.47 30.80L160.47 30.80Q159.25 28.32 159.25 25.06L159.25 25.06L159.25 25.06Q159.25 21.56 160.74 18.76L160.74 18.76L160.74 18.76Q162.22 15.96 164.83 14.37L164.83 14.37L164.83 14.37Q167.44 12.77 170.73 12.77L170.73 12.77L170.73 12.77Q173.74 12.77 176.02 14.12L176.02 14.12L176.02 14.12Q178.29 15.47 179.53 17.92L179.53 17.92L179.53 17.92Q180.78 20.37 180.78 23.63L180.78 23.63L180.78 23.63Q180.78 26.39 179.76 28.79L179.76 28.79L179.76 28.79Q178.75 31.19 176.94 32.88L176.94 32.88L176.94 32.88Q175.14 34.58 172.83 35.32L172.83 35.32L172.83 35.56L172.83 35.56Q176.19 37.87 178.57 38.89L178.57 38.89L178.57 38.89Q180.95 39.90 182.98 39.90L182.98 39.90L182.98 39.90Q184.00 39.90 184.92 39.74L184.92 39.74L184.92 39.74Q185.85 39.59 185.85 39.55L185.85 39.55L186.06 39.69L186.34 40.71L186.34 40.71Q186.09 40.92 185.31 41.53L185.31 41.53L185.31 41.53Q184.52 42.14 183.66 42.72L183.66 42.72L183.66 42.72Q182.81 43.30 182.42 43.30L182.42 43.30ZM170.10 33.67L170.10 33.67Q172.06 33.67 173.53 32.64L173.53 32.64L173.53 32.64Q175 31.61 175.82 29.70L175.82 29.70L175.82 29.70Q176.65 27.79 176.65 25.27L176.65 25.27L176.65 25.27Q176.65 22.26 175.79 20.04L175.79 20.04L175.79 20.04Q174.93 17.82 173.34 16.63L173.34 16.63L173.34 16.63Q171.75 15.43 169.65 15.43L169.65 15.43L169.65 15.43Q167.72 15.43 166.28 16.47L166.28 16.47L166.28 16.47Q164.85 17.50 164.06 19.39L164.06 19.39L164.06 19.39Q163.28 21.28 163.28 23.80L163.28 23.80L163.28 23.80Q163.28 26.81 164.12 29.03L164.12 29.03L164.12 29.03Q164.96 31.26 166.50 32.46L166.50 32.46L166.50 32.46Q168.03 33.67 170.10 33.67L170.10 33.67ZM195.41 35.98L195.41 35.98Q191.60 35.98 189.58 34.02L189.58 34.02L189.58 34.02Q187.57 32.06 187.57 28.32L187.57 28.32L187.57 16.91L187.57 16.91Q187.57 15.79 187.33 15.40L187.33 15.40L187.33 15.40Q187.08 15.02 186.35 15.02L186.35 15.02L186.35 15.02Q186.00 15.02 185.65 15.05L185.65 15.05L185.65 15.05Q185.30 15.09 185.19 15.09L185.19 15.09L185.12 14.95L185.37 13.09L185.37 13.09Q185.82 13.13 187.12 13.16L187.12 13.16L187.12 13.16Q188.41 13.20 189.81 13.20L189.81 13.20L189.81 13.20Q190.72 13.20 192.02 13.07L192.02 13.07L192.02 13.07Q193.31 12.95 193.70 12.91L193.70 12.91L193.49 14.84L193.49 14.84Q192.26 14.98 191.84 15.40L191.84 15.40L191.84 15.40Q191.42 15.82 191.39 16.77L191.39 16.77L191.11 27.02L191.11 27.02Q191.11 30.14 192.45 31.82L192.45 31.82L192.45 31.82Q193.80 33.50 196.32 33.50L196.32 33.50L196.32 33.50Q198.84 33.50 200.17 32.13L200.17 32.13L200.17 32.13Q201.50 30.77 201.50 28.14L201.50 28.14L201.50 28.14Q201.47 25.38 201.41 21.86L201.41 21.86L201.41 21.86Q201.36 18.34 201.33 16.91L201.33 16.91L201.33 16.91Q201.26 15.71 201.03 15.37L201.03 15.37L201.03 15.37Q200.80 15.02 200.10 15.02L200.10 15.02L200.10 15.02Q199.72 15.02 199.30 15.05L199.30 15.05L199.30 15.05Q198.88 15.09 198.74 15.09L198.74 15.09L198.67 14.95L198.95 13.09L198.95 13.09Q199.37 13.09 200.56 13.14L200.56 13.14L200.56 13.14Q201.75 13.20 202.94 13.20L202.94 13.20L202.94 13.20Q203.95 13.20 205.14 13.07L205.14 13.07L205.14 13.07Q206.33 12.95 206.68 12.91L206.68 12.91L206.51 14.80L206.51 14.80Q205.49 14.98 205.04 15.17L205.04 15.17L205.04 15.17Q204.58 15.37 204.41 15.70L204.41 15.70L204.41 15.70Q204.23 16.03 204.23 16.73L204.23 16.73L204.23 28.11L204.23 28.11Q204.23 31.89 201.94 33.93L201.94 33.93L201.94 33.93Q199.65 35.98 195.41 35.98L195.41 35.98ZM228.46 29.12L228.63 29.37L228.63 29.37Q228.00 32.13 227.65 35.53L227.65 35.53L227.41 35.80L227.41 35.80Q220.37 35.56 216.70 35.56L216.70 35.56L216.70 35.56Q213.93 35.56 211.31 35.91L211.31 35.91L211.52 33.98L211.52 33.98Q213.06 33.78 213.62 33.15L213.62 33.15L213.62 33.15Q214.18 32.52 214.18 31.01L214.18 31.01L214.21 16.91L214.21 16.91Q214.21 15.79 213.97 15.40L213.97 15.40L213.97 15.40Q213.72 15.02 212.99 15.02L212.99 15.02L211.83 15.09L211.69 14.88L211.97 13.09L211.97 13.09Q216.07 13.20 217.50 13.20L217.50 13.20L217.50 13.20Q221.56 13.20 223.99 13.11L223.99 13.11L223.99 13.11Q226.43 13.02 228.07 12.77L228.07 12.77L228.25 13.05L228.25 13.05Q227.97 14.35 227.74 16.03L227.74 16.03L227.74 16.03Q227.51 17.71 227.44 19.11L227.44 19.11L225.10 19.29L225.17 17.82L225.17 17.82Q225.17 16.70 224.85 16.22L224.85 16.22L224.85 16.22Q224.54 15.75 223.57 15.59L223.57 15.59L223.57 15.59Q222.61 15.43 220.23 15.43L220.23 15.43L220.23 15.43Q219.15 15.43 218.73 15.50L218.73 15.50L218.73 15.50Q218.31 15.57 218.18 15.84L218.18 15.84L218.18 15.84Q218.06 16.10 218.03 16.73L218.03 16.73L217.75 22.93L221.21 22.96L221.21 22.96Q221.98 22.96 223.15 22.86L223.15 22.86L223.15 22.86Q224.33 22.75 225.41 22.61L225.41 22.61L225.59 22.86L225.10 25.34L225.10 25.34Q221.42 25.23 220.37 25.23L220.37 25.23L220.37 25.23Q219.36 25.23 217.68 25.45L217.68 25.45L217.57 31.40L217.57 31.40Q217.57 32.38 217.73 32.80L217.73 32.80L217.73 32.80Q217.89 33.22 218.38 33.36L218.38 33.36L218.38 33.36Q218.87 33.50 220.09 33.50L220.09 33.50L220.09 33.50Q222.72 33.50 223.87 33.22L223.87 33.22L223.87 33.22Q225.03 32.94 225.52 32.11L225.52 32.11L225.52 32.11Q226.01 31.29 226.29 29.33L226.29 29.33L228.46 29.12ZM250.30 36.12L250.30 36.12Q249.32 36.12 248.32 35.26L248.32 35.26L248.32 35.26Q247.33 34.41 246.52 32.83L246.52 32.83L243.13 26.32L240.40 26.32L240.33 30.98L240.33 30.98Q240.33 32.27 240.50 32.83L240.50 32.83L240.50 32.83Q240.68 33.39 241.17 33.57L241.17 33.57L241.17 33.57Q241.66 33.74 242.85 33.78L242.85 33.78L242.92 33.91L242.60 35.70L242.60 35.70Q242.08 35.66 240.69 35.63L240.69 35.63L240.69 35.63Q239.31 35.59 237.95 35.59L237.95 35.59L237.95 35.59Q236.83 35.59 235.60 35.65L235.60 35.65L235.60 35.65Q234.38 35.70 234.03 35.73L234.03 35.73L234.34 33.81L234.34 33.81Q235.92 33.64 236.42 33.08L236.42 33.08L236.42 33.08Q236.93 32.52 236.93 31.01L236.93 31.01L236.97 16.84L236.97 16.84Q236.97 15.75 236.70 15.38L236.70 15.38L236.70 15.38Q236.44 15.02 235.74 15.02L235.74 15.02L235.74 15.02Q235.36 15.02 235.01 15.05L235.01 15.05L235.01 15.05Q234.66 15.09 234.55 15.09L234.55 15.09L234.41 14.91L234.69 13.09L234.69 13.09Q235.15 13.09 236.37 13.14L236.37 13.14L236.37 13.14Q237.60 13.20 238.79 13.20L238.79 13.20L238.79 13.20Q240.08 13.20 241.53 13.14L241.53 13.14L241.53 13.14Q242.99 13.09 243.55 13.05L243.55 13.05L243.55 13.05Q247.12 13.05 249.13 14.56L249.13 14.56L249.13 14.56Q251.14 16.07 251.14 18.76L251.14 18.76L251.14 18.76Q251.14 20.83 249.85 22.58L249.85 22.58L249.85 22.58Q248.55 24.33 246.17 25.45L246.17 25.45L249.67 31.05L249.67 31.05Q250.69 32.69 251.61 33.36L251.61 33.36L251.61 33.36Q252.54 34.02 253.84 34.02L253.84 34.02L254.01 34.27L253.77 35.73L250.30 36.12ZM243.90 24.22L243.90 24.22Q244.70 23.87 245.31 23.50L245.31 23.50L245.31 23.50Q245.93 23.14 246.63 22.09L246.63 22.09L246.63 22.09Q247.33 21.04 247.33 19.39L247.33 19.39L247.33 19.39Q247.33 15.12 241.45 15.12L241.45 15.12L241.45 15.12Q241.10 15.12 240.97 15.28L240.97 15.28L240.97 15.28Q240.85 15.43 240.82 15.93L240.82 15.93L240.82 15.93Q240.50 20.72 240.47 23.87L240.47 23.87L243.90 24.22ZM267.28 35.98L267.28 35.98Q264.34 35.98 262.12 34.63L262.12 34.63L262.12 34.63Q259.90 33.29 258.67 30.80L258.67 30.80L258.67 30.80Q257.45 28.32 257.45 25.06L257.45 25.06L257.45 25.06Q257.45 21.56 258.93 18.76L258.93 18.76L258.93 18.76Q260.42 15.96 263.03 14.37L263.03 14.37L263.03 14.37Q265.64 12.77 268.93 12.77L268.93 12.77L268.93 12.77Q271.94 12.77 274.21 14.12L274.21 14.12L274.21 14.12Q276.49 15.47 277.73 17.92L277.73 17.92L277.73 17.92Q278.97 20.37 278.97 23.63L278.97 23.63L278.97 23.63Q278.97 27.16 277.47 29.98L277.47 29.98L277.47 29.98Q275.96 32.80 273.28 34.39L273.28 34.39L273.28 34.39Q270.61 35.98 267.28 35.98L267.28 35.98ZM268.30 33.67L268.30 33.67Q270.26 33.67 271.73 32.64L271.73 32.64L271.73 32.64Q273.20 31.61 274.02 29.70L274.02 29.70L274.02 29.70Q274.84 27.79 274.84 25.27L274.84 25.27L274.84 25.27Q274.84 22.26 273.98 20.04L273.98 20.04L273.98 20.04Q273.13 17.82 271.53 16.63L271.53 16.63L271.53 16.63Q269.94 15.43 267.84 15.43L267.84 15.43L267.84 15.43Q265.92 15.43 264.48 16.47L264.48 16.47L264.48 16.47Q263.05 17.50 262.26 19.39L262.26 19.39L262.26 19.39Q261.47 21.28 261.47 23.80L261.47 23.80L261.47 23.80Q261.47 26.81 262.31 29.03L262.31 29.03L262.31 29.03Q263.15 31.26 264.69 32.46L264.69 32.46L264.69 32.46Q266.23 33.67 268.30 33.67L268.30 33.67ZM300.12 36.12L300.12 36.12Q299.14 36.12 298.14 35.26L298.14 35.26L298.14 35.26Q297.14 34.41 296.34 32.83L296.34 32.83L292.94 26.32L290.21 26.32L290.14 30.98L290.14 30.98Q290.14 32.27 290.32 32.83L290.32 32.83L290.32 32.83Q290.49 33.39 290.98 33.57L290.98 33.57L290.98 33.57Q291.47 33.74 292.66 33.78L292.66 33.78L292.73 33.91L292.42 35.70L292.42 35.70Q291.89 35.66 290.51 35.63L290.51 35.63L290.51 35.63Q289.13 35.59 287.76 35.59L287.76 35.59L287.76 35.59Q286.64 35.59 285.42 35.65L285.42 35.65L285.42 35.65Q284.19 35.70 283.84 35.73L283.84 35.73L284.16 33.81L284.16 33.81Q285.73 33.64 286.24 33.08L286.24 33.08L286.24 33.08Q286.75 32.52 286.75 31.01L286.75 31.01L286.78 16.84L286.78 16.84Q286.78 15.75 286.52 15.38L286.52 15.38L286.52 15.38Q286.26 15.02 285.56 15.02L285.56 15.02L285.56 15.02Q285.17 15.02 284.82 15.05L284.82 15.05L284.82 15.05Q284.47 15.09 284.37 15.09L284.37 15.09L284.23 14.91L284.51 13.09L284.51 13.09Q284.96 13.09 286.19 13.14L286.19 13.14L286.19 13.14Q287.41 13.20 288.60 13.20L288.60 13.20L288.60 13.20Q289.90 13.20 291.35 13.14L291.35 13.14L291.35 13.14Q292.80 13.09 293.36 13.05L293.36 13.05L293.36 13.05Q296.93 13.05 298.94 14.56L298.94 14.56L298.94 14.56Q300.96 16.07 300.96 18.76L300.96 18.76L300.96 18.76Q300.96 20.83 299.66 22.58L299.66 22.58L299.66 22.58Q298.37 24.33 295.99 25.45L295.99 25.45L299.49 31.05L299.49 31.05Q300.50 32.69 301.43 33.36L301.43 33.36L301.43 33.36Q302.36 34.02 303.65 34.02L303.65 34.02L303.83 34.27L303.58 35.73L300.12 36.12ZM293.71 24.22L293.71 24.22Q294.52 23.87 295.13 23.50L295.13 23.50L295.13 23.50Q295.74 23.14 296.44 22.09L296.44 22.09L296.44 22.09Q297.14 21.04 297.14 19.39L297.14 19.39L297.14 19.39Q297.14 15.12 291.26 15.12L291.26 15.12L291.26 15.12Q290.91 15.12 290.79 15.28L290.79 15.28L290.79 15.28Q290.67 15.43 290.63 15.93L290.63 15.93L290.63 15.93Q290.32 20.72 290.28 23.87L290.28 23.87L293.71 24.22ZM313.74 35.98L313.74 35.98Q312.20 35.98 310.90 35.70L310.90 35.70L310.90 35.70Q309.61 35.42 308.77 35.09L308.77 35.09L308.77 35.09Q307.93 34.76 307.93 34.72L307.93 34.72L307.72 34.30L307.72 34.30Q307.75 34.09 307.86 33.29L307.86 33.29L307.86 33.29Q307.96 32.48 308.08 31.08L308.08 31.08L308.08 31.08Q308.21 29.68 308.21 28.28L308.21 28.28L310.34 28.11L310.34 28.11Q310.34 30.42 310.69 31.59L310.69 31.59L310.69 31.59Q311.04 32.76 311.93 33.22L311.93 33.22L311.93 33.22Q312.83 33.67 314.61 33.67L314.61 33.67L314.61 33.67Q316.57 33.67 317.76 32.76L317.76 32.76L317.76 32.76Q318.95 31.85 318.95 30.31L318.95 30.31L318.95 30.31Q318.95 28.98 317.81 28.09L317.81 28.09L317.81 28.09Q316.68 27.20 314.37 26.04L314.37 26.04L314.37 26.04Q314.26 25.97 313.70 25.69L313.70 25.69L313.70 25.69Q311.04 24.36 309.55 23.00L309.55 23.00L309.55 23.00Q308.06 21.63 308.06 19.50L308.06 19.50L308.06 19.50Q308.06 17.61 309.19 16.07L309.19 16.07L309.19 16.07Q310.31 14.52 312.27 13.65L312.27 13.65L312.27 13.65Q314.23 12.77 316.68 12.77L316.68 12.77L316.68 12.77Q318.11 12.77 319.37 12.98L319.37 12.98L319.37 12.98Q320.63 13.20 321.38 13.41L321.38 13.41L321.38 13.41Q322.14 13.61 322.31 13.68L322.31 13.68L322.45 14L322.45 14Q322.35 14.49 322.07 16.22L322.07 16.22L322.07 16.22Q321.79 17.96 321.65 19.95L321.65 19.95L319.76 20.13L319.48 19.91L319.48 19.91Q319.51 19.81 319.55 19.36L319.55 19.36L319.55 19.36Q319.58 18.90 319.58 18.34L319.58 18.34L319.58 18.34Q319.58 16.63 318.72 15.94L318.72 15.94L318.72 15.94Q317.87 15.26 315.73 15.26L315.73 15.26L315.73 15.26Q314.02 15.26 312.90 16.12L312.90 16.12L312.90 16.12Q311.78 16.98 311.78 18.27L311.78 18.27L311.78 18.27Q311.78 19.60 312.93 20.51L312.93 20.51L312.93 20.51Q314.09 21.42 316.47 22.61L316.47 22.61L316.47 22.61Q318.57 23.66 319.81 24.43L319.81 24.43L319.81 24.43Q321.05 25.20 321.94 26.36L321.94 26.36L321.94 26.36Q322.84 27.51 322.84 29.05L322.84 29.05L322.84 29.05Q322.84 31.08 321.70 32.66L321.70 32.66L321.70 32.66Q320.56 34.23 318.50 35.11L318.50 35.11L318.50 35.11Q316.43 35.98 313.74 35.98L313.74 35.98Z" transform="rotate(0 161.5449981689453 28.03499984741211)"></path><defs id="SvgjsDefs1012"></defs></svg></g></svg>